<svg xmlns="http://www.w3.org/2000/svg" xmlns:xlink="http://www.w3.org/1999/xlink" width="200" height="50" viewBox="0 0 82 82">
    <defs>
        <linearGradient id="linear-gradient" x1="8.271" y1="-1.699" x2="0.166" y2="0.676" gradientUnits="objectBoundingBox">
            <stop offset="0" stop-color="#f09f7f"/>
            <stop offset="1" stop-color="#ebe2d1"/>
        </linearGradient>
        <linearGradient id="linear-gradient-2" x1="8.296" y1="-1.486" x2="-1.013" y2="0.852" xlink:href="#linear-gradient"/>
        <linearGradient id="linear-gradient-3" x1="8.444" y1="-1.294" x2="-2.36" y2="1.136" xlink:href="#linear-gradient"/>
        <linearGradient id="linear-gradient-4" x1="5.58" y1="-0.91" x2="-2.524" y2="1.464" xlink:href="#linear-gradient"/>
        <linearGradient id="linear-gradient-5" x1="7.477" y1="-0.709" x2="-5.884" y2="1.61" xlink:href="#linear-gradient"/>
        <linearGradient id="linear-gradient-6" x1="3.318" y1="-0.333" x2="-4.789" y2="2.065" xlink:href="#linear-gradient"/>
        <linearGradient id="linear-gradient-7" x1="2.514" y1="-0.004" x2="-6.427" y2="2.393" xlink:href="#linear-gradient"/>
        <linearGradient id="linear-gradient-8" x1="1.705" y1="0.209" x2="-8.885" y2="2.721" xlink:href="#linear-gradient"/>
        <linearGradient id="linear-gradient-9" x1="0.52" y1="0.573" x2="-7.849" y2="3.026" xlink:href="#linear-gradient"/>
        <linearGradient id="linear-gradient-10" x1="-0.506" y1="0.8" x2="-8.281" y2="3.272" xlink:href="#linear-gradient"/>
        <linearGradient id="linear-gradient-11" x1="24.046" y1="-4.841" x2="0.984" y2="0.344" xlink:href="#linear-gradient"/>
        <linearGradient id="linear-gradient-12" x1="20.464" y1="-4.003" x2="-2.521" y2="1.174" xlink:href="#linear-gradient"/>
        <linearGradient id="linear-gradient-13" x1="12.745" y1="-3.011" x2="-4.508" y2="2.046" xlink:href="#linear-gradient"/>
        <linearGradient id="linear-gradient-14" x1="11.294" y1="-2.238" x2="-8.51" y2="2.733" xlink:href="#linear-gradient"/>
        <linearGradient id="linear-gradient-15" x1="10.232" y1="-1.558" x2="-14.697" y2="3.61" xlink:href="#linear-gradient"/>
        <linearGradient id="linear-gradient-16" x1="4.374" y1="-0.644" x2="-12.344" y2="4.295" xlink:href="#linear-gradient"/>
        <linearGradient id="linear-gradient-17" x1="1.778" y1="0.158" x2="-17.275" y2="5.262" xlink:href="#linear-gradient"/>
        <linearGradient id="linear-gradient-18" x1="-0.913" y1="1.047" x2="-14.461" y2="6.215" xlink:href="#linear-gradient"/>
        <linearGradient id="linear-gradient-19" x1="0.838" y1="-17.49" x2="0.064" y2="23.717" xlink:href="#linear-gradient"/>
        <linearGradient id="linear-gradient-20" x1="1.313" y1="-2.634" x2="0.01" y2="1.827" xlink:href="#linear-gradient"/>
        <linearGradient id="linear-gradient-21" x1="0.87" y1="0.217" x2="-0.023" y2="1.114" xlink:href="#linear-gradient"/>
        <linearGradient id="linear-gradient-22" x1="1.167" y1="-0.614" x2="0.183" y2="1.696" xlink:href="#linear-gradient"/>
        <linearGradient id="linear-gradient-23" x1="1.514" y1="-0.286" x2="-0.917" y2="1.599" xlink:href="#linear-gradient"/>
        <linearGradient id="linear-gradient-24" x1="1.035" y1="-0.306" x2="0.034" y2="1.056" xlink:href="#linear-gradient"/>
    </defs>
    <g id="Group_435" data-name="Group 435" transform="translate(0 0)">
        <g id="Layer_2" data-name="Layer 2" transform="translate(0 0)">
            <g id="Layer_1" data-name="Layer 1">
                <path id="Path_425" data-name="Path 425" d="M91.1,163.876a54.175,54.175,0,0,1,4.921,3.449c-.8.7-1.624,1.376-2.48,2.01a39.942,39.942,0,0,1-28.425,7.821,38.38,38.38,0,0,1-14.051-4.326,37.394,37.394,0,0,1-11.164-9.1l.3-.29a39.717,39.717,0,0,0,25.173,9.822,38.069,38.069,0,0,0,13.166-2.035,37.37,37.37,0,0,0,11.466-6.411C90.381,164.514,90.742,164.2,91.1,163.876Z" transform="translate(-23.16 -94.869)" fill="url(#linear-gradient-20)"/>
                <path id="Path_426" data-name="Path 426" d="M92.982,49.027a41.117,41.117,0,0,1-5.454,14.265,41.956,41.956,0,0,1-4.737,6.184l-3.3-5.454a35.857,35.857,0,0,0,2.7-3.982A36.2,36.2,0,0,0,61.813,7.1a36.875,36.875,0,0,0-25.84,1.473,37.525,37.525,0,0,0-11.034,7.5,38.36,38.36,0,0,0-7.816,10.992A39.476,39.476,0,0,0,15,54.154l-.39.134a37.491,37.491,0,0,1-2.8-14.055A38.826,38.826,0,0,1,14.365,25.9a39.648,39.648,0,0,1,3.26-6.629A40.428,40.428,0,0,1,48.387.186,42.711,42.711,0,0,1,55.964.157a40.89,40.89,0,0,1,7.476,1.389A41.57,41.57,0,0,1,92.982,49.027Z" transform="translate(-6.851 -0.003)" fill="url(#linear-gradient-21)"/>
                <path id="Path_427" data-name="Path 427" d="M8.47,141.991c3.805-5.244,15.209-19.463,35.31-24.863a61.859,61.859,0,0,1,22.983-1.678l16.086,26.533a53.86,53.86,0,0,0-28.207-14.416C29.523,123.417,10.992,139.7,8.47,141.991Z" transform="translate(-4.916 -66.778)" fill="url(#linear-gradient-22)"/>
                <path id="Path_428" data-name="Path 428" d="M64.459,25.39,44.82,58.4A58.767,58.767,0,0,1,74.906,41.69Z" transform="translate(-26.016 -14.739)" fill="url(#linear-gradient-23)"/>
                <path id="Path_429" data-name="Path 429" d="M73.129,68.006a74.312,74.312,0,0,0-35.939,6.688C12.763,86.085,2.618,107.507,0,113.553c3.81-5.681,14.429-19.82,33.85-26.759a66.743,66.743,0,0,1,25.488-3.776Z" transform="translate(0 -39.385)" fill="url(#linear-gradient-24)"/>
            </g>
        </g>
    </g>
</svg>
