<svg xmlns="http://www.w3.org/2000/svg" xmlns:xlink="http://www.w3.org/1999/xlink" width="351" height="82.526" viewBox="0 0 351 82.526">
  <defs>
    <linearGradient id="linear-gradient" x1="8.271" y1="-1.699" x2="0.166" y2="0.676" gradientUnits="objectBoundingBox">
      <stop offset="0" stop-color="#f09f7f"/>
      <stop offset="1" stop-color="#ebe2d1"/>
    </linearGradient>
    <linearGradient id="linear-gradient-2" x1="8.296" y1="-1.486" x2="-1.013" y2="0.852" xlink:href="#linear-gradient"/>
    <linearGradient id="linear-gradient-3" x1="8.444" y1="-1.294" x2="-2.36" y2="1.136" xlink:href="#linear-gradient"/>
    <linearGradient id="linear-gradient-4" x1="5.58" y1="-0.91" x2="-2.524" y2="1.464" xlink:href="#linear-gradient"/>
    <linearGradient id="linear-gradient-5" x1="7.477" y1="-0.709" x2="-5.884" y2="1.61" xlink:href="#linear-gradient"/>
    <linearGradient id="linear-gradient-6" x1="3.318" y1="-0.333" x2="-4.789" y2="2.065" xlink:href="#linear-gradient"/>
    <linearGradient id="linear-gradient-7" x1="2.514" y1="-0.004" x2="-6.427" y2="2.393" xlink:href="#linear-gradient"/>
    <linearGradient id="linear-gradient-8" x1="1.705" y1="0.209" x2="-8.885" y2="2.721" xlink:href="#linear-gradient"/>
    <linearGradient id="linear-gradient-9" x1="0.52" y1="0.573" x2="-7.849" y2="3.026" xlink:href="#linear-gradient"/>
    <linearGradient id="linear-gradient-10" x1="-0.506" y1="0.8" x2="-8.281" y2="3.272" xlink:href="#linear-gradient"/>
    <linearGradient id="linear-gradient-11" x1="24.046" y1="-4.841" x2="0.984" y2="0.344" xlink:href="#linear-gradient"/>
    <linearGradient id="linear-gradient-12" x1="20.464" y1="-4.003" x2="-2.521" y2="1.174" xlink:href="#linear-gradient"/>
    <linearGradient id="linear-gradient-13" x1="12.745" y1="-3.011" x2="-4.508" y2="2.046" xlink:href="#linear-gradient"/>
    <linearGradient id="linear-gradient-14" x1="11.294" y1="-2.238" x2="-8.51" y2="2.733" xlink:href="#linear-gradient"/>
    <linearGradient id="linear-gradient-15" x1="10.232" y1="-1.558" x2="-14.697" y2="3.61" xlink:href="#linear-gradient"/>
    <linearGradient id="linear-gradient-16" x1="4.374" y1="-0.644" x2="-12.344" y2="4.295" xlink:href="#linear-gradient"/>
    <linearGradient id="linear-gradient-17" x1="1.778" y1="0.158" x2="-17.275" y2="5.262" xlink:href="#linear-gradient"/>
    <linearGradient id="linear-gradient-18" x1="-0.913" y1="1.047" x2="-14.461" y2="6.215" xlink:href="#linear-gradient"/>
    <linearGradient id="linear-gradient-19" x1="0.838" y1="-17.49" x2="0.064" y2="23.717" xlink:href="#linear-gradient"/>
    <linearGradient id="linear-gradient-20" x1="1.313" y1="-2.634" x2="0.01" y2="1.827" xlink:href="#linear-gradient"/>
    <linearGradient id="linear-gradient-21" x1="0.87" y1="0.217" x2="-0.023" y2="1.114" xlink:href="#linear-gradient"/>
    <linearGradient id="linear-gradient-22" x1="1.167" y1="-0.614" x2="0.183" y2="1.696" xlink:href="#linear-gradient"/>
    <linearGradient id="linear-gradient-23" x1="1.514" y1="-0.286" x2="-0.917" y2="1.599" xlink:href="#linear-gradient"/>
    <linearGradient id="linear-gradient-24" x1="1.035" y1="-0.306" x2="0.034" y2="1.056" xlink:href="#linear-gradient"/>
  </defs>
  <g id="Group_435" data-name="Group 435" transform="translate(0 0)">
    <g id="Layer_2" data-name="Layer 2" transform="translate(0 0)">
      <g id="Layer_1" data-name="Layer 1">
        <path id="Path_407" data-name="Path 407" d="M283.1,68.182v-.957c2.1-.3,2.412-.592,1.955-1.934s-1.091-2.979-1.821-4.888h-7.3c-.566,1.523-1.024,2.819-1.456,4.137-.726,2.026-.453,2.412,2.119,2.685v.957H269.09v-.957c2.207-.34,2.681-.571,3.889-3.524l7.132-17.353,1.183-.3c2.182,5.874,4.363,11.806,6.616,17.651,1.091,2.937,1.569,3.3,3.776,3.524v.957Zm-3.356-17.558h-.067c-1.091,2.752-2.161,5.593-3.184,8.278h6.23Z" transform="translate(-156.192 -26.731)" fill="url(#linear-gradient)"/>
        <path id="Path_408" data-name="Path 408" d="M346.829,51.433a7.879,7.879,0,0,0-1.158-3.117c-.571-.772-1.162-1.024-3.755-1.024H339.6V63.524c0,2.639.3,3.025,3.528,3.231v.957H333.055v-.957c3.117-.206,3.411-.571,3.411-3.231V47.308h-1.984c-2.958,0-3.663.319-4.12,1.024a10.55,10.55,0,0,0-1.158,3.117H328.18c.159-2.161.319-4.368.386-6.209h.73c.5.839.931.839,1.93.839h13.782a1.842,1.842,0,0,0,1.775-.839h.73c0,1.523.18,4.095.34,6.1Z" transform="translate(-190.49 -26.261)" fill="url(#linear-gradient-2)"/>
        <path id="Path_409" data-name="Path 409" d="M397.27,63.5c-.227,1.137-.931,4.347-1.259,5.37H380.32v-.957c2.912-.206,3.205-.42,3.205-3.356V51.519c0-2.891-.227-3.1-3.046-3.277v-1h9.209v1c-2.681.18-3,.365-3,3.277V64.459c0,1.821.159,2.454.8,2.8a7.7,7.7,0,0,0,3.159.42c1.8,0,3-.206,3.776-1.07a9.267,9.267,0,0,0,1.842-3.323Z" transform="translate(-220.755 -27.421)" fill="url(#linear-gradient-3)"/>
        <path id="Path_410" data-name="Path 410" d="M439.939,68.182v-.957c2.1-.3,2.412-.592,1.955-1.934s-1.091-2.979-1.817-4.888h-7.3c-.571,1.523-1.024,2.819-1.456,4.137-.73,2.026-.457,2.412,2.1,2.685v.957H425.93v-.957c2.207-.34,2.685-.571,3.889-3.524l7.132-17.353,1.183-.3c2.182,5.874,4.368,11.806,6.616,17.651,1.095,2.937,1.573,3.3,3.776,3.524v.957Zm-3.356-17.558h-.067c-1.091,2.752-2.161,5.593-3.184,8.278h6.235Z" transform="translate(-247.229 -26.731)" fill="url(#linear-gradient-4)"/>
        <path id="Path_411" data-name="Path 411" d="M496.748,51.743c-.592-2.14-1.64-4.548-4.506-4.548a3.5,3.5,0,0,0-3.751,3.617c0,2.341,1.569,3.478,4.342,4.821,2.891,1.41,5.874,2.979,5.874,6.642,0,3.57-3.046,6.411-7.686,6.411a10.413,10.413,0,0,1-3.411-.545,10.787,10.787,0,0,1-1.678-.7,50.8,50.8,0,0,1-.931-5.3l1.024-.294c.571,2.1,2.232,5.593,5.71,5.593a3.626,3.626,0,0,0,3.935-3.91c0-2.387-1.812-3.549-4.405-4.926-2.366-1.183-5.618-2.845-5.618-6.507,0-3.319,2.685-6.071,7.132-6.071a14.478,14.478,0,0,1,4.388.831c.134,1.183.294,2.547.592,4.728Z" transform="translate(-281.515 -26.713)" fill="url(#linear-gradient-5)"/>
        <path id="Path_412" data-name="Path 412" d="M568,45.4c5.786,0,11.022,4.225,11.022,10.674,0,6.952-5.215,11.244-11.462,11.244S556.43,62.761,556.43,56.56A11.067,11.067,0,0,1,567.959,45.4Zm-.726,1.213c-3.709,0-7.246,3.012-7.246,9.109,0,5.92,3.5,10.384,8.232,10.384,3.7,0,7.082-2.937,7.082-9.176,0-6.755-3.738-10.317-8.072-10.317Z" transform="translate(-322.977 -26.353)" fill="url(#linear-gradient-6)"/>
        <path id="Path_413" data-name="Path 413" d="M637.783,61.289a32.931,32.931,0,0,1-1.913,5.1,30.484,30.484,0,0,1-6.293.927c-8.492,0-12.276-5.614-12.276-10.694,0-6.776,5.454-11.223,13.111-11.223a27.822,27.822,0,0,1,6.117.927c.264,1.825.508,3.21.7,5.035l-.99.218c-.9-3.562-3.1-4.972-6.688-4.972-5.614,0-8.605,4.531-8.605,9.327,0,6.075,3.717,10.124,8.89,10.124,3.411,0,5.278-1.829,7.019-5.148Z" transform="translate(-358.308 -26.353)" fill="url(#linear-gradient-7)"/>
        <path id="Path_414" data-name="Path 414" d="M690.424,62.268c-.222,1.213-.86,4.2-1.145,5.215H673.13V66.56c2.97-.222,3.256-.529,3.256-3.168V50.785c0-2.937-.285-3.038-2.84-3.256V46.56h14.919c.042.839.176,2.97.306,4.775l-1.011.13a8.814,8.814,0,0,0-1.078-2.794c-.483-.7-1.385-.923-3.65-.923H680.59c-1.078,0-1.145.088-1.145,1.057v7.216h3.012c2.937,0,3.168-.264,3.587-2.442h.99v6.314h-.99c-.462-2.354-.7-2.517-3.587-2.517h-3.012v5.916c0,1.519.176,2.245.793,2.643s1.867.373,3.357.373c2.4,0,3.39-.222,4.137-1.057a11.178,11.178,0,0,0,1.678-3.1Z" transform="translate(-390.714 -27.027)" fill="url(#linear-gradient-8)"/>
        <path id="Path_415" data-name="Path 415" d="M734.906,66.793v-.923c2.043-.289,2.333-.575,1.892-1.871s-1.057-2.882-1.762-4.733h-7.061c-.55,1.473-.99,2.731-1.41,3.99-.7,1.959-.419,2.333,2.047,2.6v.923H721.35v-.923c2.135-.331,2.6-.55,3.776-3.411l6.91-16.782,1.145-.289c2.1,5.7,4.221,11.42,6.4,17.076,1.053,2.836,1.515,3.189,3.65,3.411v.923ZM731.692,49.83h-.067c-1.053,2.66-2.1,5.412-3.08,8.005h6.029Z" transform="translate(-418.703 -26.336)" fill="url(#linear-gradient-9)"/>
        <path id="Path_416" data-name="Path 416" d="M803.993,47.529c-1.825.088-2.618.462-2.773,1.934a51.943,51.943,0,0,0-.2,5.479V67.815h-1.036L785.532,51.032h-.046v7.854A54.106,54.106,0,0,0,785.7,64.3c.155,1.678.9,2.068,3.172,2.245v.923h-7.921v-.923c1.892-.134,2.727-.55,2.882-2.157a41.239,41.239,0,0,0,.264-5.475V51.993c0-2.354-.109-2.517-.7-3.3-.68-.793-1.384-1.057-2.937-1.166V46.56h5.06l14.047,15.884h.088v-7.5a51.449,51.449,0,0,0-.218-5.37c-.155-1.519-.923-1.934-3.277-2.043V46.56h7.854Z" transform="translate(-453.014 -27.027)" fill="url(#linear-gradient-10)"/>
        <path id="Path_417" data-name="Path 417" d="M280.117,130.94a4.55,4.55,0,0,1,2.7.655,2.6,2.6,0,0,1,1.049,2.219,3.216,3.216,0,0,1-3.122,3.205,5.186,5.186,0,0,1-.747,0l-1.2-.3V139.1c0,1.334.138,1.422,1.59,1.527v.449H275.93v-.449c1.259-.1,1.41-.235,1.41-1.536V132.95c0-1.4-.138-1.464-1.322-1.54v-.47ZM278.8,136.2a3.5,3.5,0,0,0,1.141.193,2.467,2.467,0,0,0-.092-4.921,1.477,1.477,0,0,0-.877.193c-.109.1-.172.277-.172.717Z" transform="translate(-160.162 -76.005)" fill="url(#linear-gradient-11)"/>
        <path id="Path_418" data-name="Path 418" d="M356.177,138.576c-.1.537-.42,2.039-.6,2.517H348.21v-.449c1.368-.1,1.506-.2,1.506-1.569V132.95c0-1.355-.1-1.452-1.431-1.54v-.47h4.326v.47c-1.259.088-1.41.172-1.41,1.54v6.075c0,.839.076,1.154.373,1.313a3.466,3.466,0,0,0,1.485.206,2.236,2.236,0,0,0,1.775-.5,4.263,4.263,0,0,0,.864-1.561Z" transform="translate(-202.117 -76.005)" fill="url(#linear-gradient-12)"/>
        <path id="Path_419" data-name="Path 419" d="M427.172,140.772v-.449c.994-.138,1.133-.277.919-.906s-.512-1.4-.839-2.295h-3.428c-.264.713-.478,1.322-.684,1.943-.34.948-.21,1.133.994,1.259v.449H420.61v-.449c1.036-.159,1.259-.269,1.825-1.653l3.356-8.148.554-.143c1.024,2.769,2.052,5.542,3.109,8.29.512,1.376.734,1.548,1.771,1.653v.449Zm-1.569-8.244h-.034c-.512,1.292-1.011,2.626-1.494,3.889h2.937Z" transform="translate(-244.141 -75.68)" fill="url(#linear-gradient-13)"/>
        <path id="Path_420" data-name="Path 420" d="M508,132.937a3.655,3.655,0,0,0-.545-1.464c-.264-.361-.541-.478-1.762-.478h-1.095v7.615c0,1.238.138,1.418,1.653,1.515v.449h-4.72v-.449c1.464-.1,1.6-.268,1.6-1.515v-7.636H502.2c-1.389,0-1.72.151-1.934.478a4.842,4.842,0,0,0-.541,1.464h-.482c.076-1.015.151-2.052.18-2.916h.344c.235.394.419.394.906.394h6.474a.839.839,0,0,0,.839-.394h.344c0,.717.084,1.922.159,2.861Z" transform="translate(-289.781 -75.459)" fill="url(#linear-gradient-14)"/>
        <path id="Path_421" data-name="Path 421" d="M581.5,133.365a3.08,3.08,0,0,0-.478-1.259c-.277-.42-.621-.575-1.8-.575h-1.166c-.5,0-.546.042-.546.512V135.7h1.6c1.464,0,1.548-.151,1.754-1.166h.47v3.075h-.483c-.193-1.087-.277-1.259-1.741-1.259h-1.6v2.723c0,1.389.143,1.485,1.6,1.59v.449H574.63v-.449c1.259-.1,1.41-.2,1.41-1.59v-6.113c0-1.376-.138-1.46-1.368-1.548v-.47H581.8c.021.579.1,1.573.172,2.35Z" transform="translate(-333.541 -76.005)" fill="url(#linear-gradient-15)"/>
        <path id="Path_422" data-name="Path 422" d="M651.165,130.374a5.188,5.188,0,0,1,5.349,5.182,5.316,5.316,0,0,1-5.563,5.454,5.188,5.188,0,0,1-5.391-5.223,5.37,5.37,0,0,1,5.6-5.416Zm-.352.587c-1.8,0-3.5,1.464-3.5,4.422,0,2.874,1.678,5.035,3.994,5.035,1.8,0,3.44-1.431,3.44-4.456,0-3.277-1.817-5.009-3.919-5.009Z" transform="translate(-374.712 -75.674)" fill="url(#linear-gradient-16)"/>
        <path id="Path_423" data-name="Path 423" d="M734.553,141.236a4.282,4.282,0,0,1-.566-.034,3.02,3.02,0,0,1-2.689-1.431c-.545-.755-1.07-1.708-1.548-2.454-.289-.449-.566-.642-1.389-.642h-.449v2.438c0,1.313.151,1.431,1.431,1.536v.449H725v-.449c1.292-.1,1.443-.222,1.443-1.536v-6.2c0-1.334-.139-1.418-1.38-1.506v-.47h4.091a4.545,4.545,0,0,1,2.6.545,2.3,2.3,0,0,1,1.057,2.052,2.836,2.836,0,0,1-2.018,2.647c.277.512.927,1.54,1.41,2.253a12.475,12.475,0,0,0,1.292,1.645,2.027,2.027,0,0,0,1.12.717Zm-5.928-5.081a2.677,2.677,0,0,0,1.741-.449,2.22,2.22,0,0,0,.839-1.926,2.1,2.1,0,0,0-2.287-2.295,1.6,1.6,0,0,0-.839.151c-.109.084-.172.269-.172.671v3.847Z" transform="translate(-420.822 -76.005)" fill="url(#linear-gradient-17)"/>
        <path id="Path_424" data-name="Path 424" d="M810.525,141.08v-.449c1.292-.126,1.355-.235,1.334-1.88l-.054-6.268h-.063l-3.91,8.5h-.319l-3.6-8.286h-.042l-.235,4.389a23.863,23.863,0,0,0-.029,2.572c.029.738.42.839,1.46.952v.47H801.32V140.6c.919-.084,1.229-.31,1.355-.927.084-.545.18-1.221.31-2.895l.235-3.138c.138-2.031.042-2.1-1.389-2.257v-.47h2.71l3.621,7.682,3.675-7.682h2.794v.47c-1.4.117-1.494.172-1.439,1.72l.159,5.651c.055,1.645.1,1.754,1.485,1.88v.449Z" transform="translate(-465.122 -75.987)" fill="url(#linear-gradient-18)"/>
        <rect id="Rectangle_1160" data-name="Rectangle 1160" width="236.558" height="1.275" transform="translate(114.421 48.802)" fill="url(#linear-gradient-19)"/>
        <path id="Path_425" data-name="Path 425" d="M91.1,163.876a54.175,54.175,0,0,1,4.921,3.449c-.8.7-1.624,1.376-2.48,2.01a39.942,39.942,0,0,1-28.425,7.821,38.38,38.38,0,0,1-14.051-4.326,37.394,37.394,0,0,1-11.164-9.1l.3-.29a39.717,39.717,0,0,0,25.173,9.822,38.069,38.069,0,0,0,13.166-2.035,37.37,37.37,0,0,0,11.466-6.411C90.381,164.514,90.742,164.2,91.1,163.876Z" transform="translate(-23.16 -94.869)" fill="url(#linear-gradient-20)"/>
        <path id="Path_426" data-name="Path 426" d="M92.982,49.027a41.117,41.117,0,0,1-5.454,14.265,41.956,41.956,0,0,1-4.737,6.184l-3.3-5.454a35.857,35.857,0,0,0,2.7-3.982A36.2,36.2,0,0,0,61.813,7.1a36.875,36.875,0,0,0-25.84,1.473,37.525,37.525,0,0,0-11.034,7.5,38.36,38.36,0,0,0-7.816,10.992A39.476,39.476,0,0,0,15,54.154l-.39.134a37.491,37.491,0,0,1-2.8-14.055A38.826,38.826,0,0,1,14.365,25.9a39.648,39.648,0,0,1,3.26-6.629A40.428,40.428,0,0,1,48.387.186,42.711,42.711,0,0,1,55.964.157a40.89,40.89,0,0,1,7.476,1.389A41.57,41.57,0,0,1,92.982,49.027Z" transform="translate(-6.851 -0.003)" fill="url(#linear-gradient-21)"/>
        <path id="Path_427" data-name="Path 427" d="M8.47,141.991c3.805-5.244,15.209-19.463,35.31-24.863a61.859,61.859,0,0,1,22.983-1.678l16.086,26.533a53.86,53.86,0,0,0-28.207-14.416C29.523,123.417,10.992,139.7,8.47,141.991Z" transform="translate(-4.916 -66.778)" fill="url(#linear-gradient-22)"/>
        <path id="Path_428" data-name="Path 428" d="M64.459,25.39,44.82,58.4A58.767,58.767,0,0,1,74.906,41.69Z" transform="translate(-26.016 -14.739)" fill="url(#linear-gradient-23)"/>
        <path id="Path_429" data-name="Path 429" d="M73.129,68.006a74.312,74.312,0,0,0-35.939,6.688C12.763,86.085,2.618,107.507,0,113.553c3.81-5.681,14.429-19.82,33.85-26.759a66.743,66.743,0,0,1,25.488-3.776Z" transform="translate(0 -39.385)" fill="url(#linear-gradient-24)"/>
      </g>
    </g>
  </g>
</svg>
